<?xml version="1.0" standalone="no"?>
<!DOCTYPE svg PUBLIC "-//W3C//DTD SVG 20010904//EN"
 "http://www.w3.org/TR/2001/REC-SVG-20010904/DTD/svg10.dtd">
<svg version="1.0" xmlns="http://www.w3.org/2000/svg"
 width="161.000000pt" height="161.000000pt" viewBox="0 0 161.000000 161.000000"
 preserveAspectRatio="xMidYMid meet">
<metadata>
Created by potrace 1.10, written by Peter Selinger 2001-2011
</metadata>
<g transform="translate(0.000000,161.000000) scale(0.100000,-0.100000)"
fill="#000000" stroke="none">
<path d="M60 806 l0 -796 745 0 745 0 0 793 0 792 -745 3 -745 4 0 -796z
m1449 740 c16 -19 8 -1486 -8 -1495 -15 -10 -1374 -6 -1389 3 -9 5 -12 190
-12 750 0 408 3 746 7 749 3 4 318 7 698 7 580 0 694 -2 704 -14z"/>
<path d="M162 1497 c-22 -23 -22 -26 -22 -429 0 -398 0 -406 21 -432 l21 -27
-21 -23 c-20 -21 -21 -32 -21 -243 l0 -222 26 -20 c35 -28 57 -26 90 4 l27 25
26 -24 c24 -22 33 -24 105 -22 76 2 80 4 108 37 22 25 31 30 35 20 3 -8 16
-25 28 -37 19 -19 33 -22 91 -22 63 0 70 3 96 30 15 17 28 35 28 42 0 6 9 -4
20 -22 27 -44 62 -59 102 -44 20 7 37 8 49 2 25 -14 175 -12 198 2 15 9 25 9
46 0 36 -17 59 -15 86 7 22 18 23 18 56 -1 37 -22 71 -19 99 9 14 15 16 30 9
112 -4 53 -6 112 -6 131 1 19 2 68 3 107 2 72 2 73 -37 113 -34 35 -36 40 -19
45 76 24 75 16 72 466 -3 374 -4 398 -22 418 -19 21 -21 21 -646 21 l-627 0
-21 -23z m1278 -429 l0 -418 -635 0 -635 0 0 418 0 417 635 0 635 0 0 -417z
m-1107 -454 c3 -4 -1 -13 -10 -22 -16 -16 -43 -8 -51 16 -4 12 49 17 61 6z
m157 1 c0 -5 -22 -42 -36 -64 -2 -2 -14 10 -28 25 -17 20 -21 31 -13 36 14 9
77 11 77 3z m253 -2 c4 -3 0 -17 -8 -30 -9 -13 -24 -63 -33 -110 -16 -84 -42
-125 -42 -67 0 56 -24 160 -42 180 -10 11 -15 24 -11 27 8 9 128 9 136 0z
m220 0 c4 -3 0 -15 -10 -25 -10 -12 -16 -37 -17 -74 0 -44 -3 -52 -12 -39 -6
8 -14 33 -18 54 -3 20 -15 46 -26 56 -11 10 -17 22 -14 26 6 10 88 12 97 2z
m252 -2 c3 -5 1 -13 -5 -16 -15 -9 -43 3 -35 15 8 13 32 13 40 1z m-916 -169
c17 -69 34 -128 37 -131 3 -3 4 55 3 128 l-1 134 31 1 31 1 0 -230 0 -230 -37
1 -37 1 -40 156 c-23 85 -43 158 -46 160 -3 3 -4 -67 -2 -156 l3 -162 -35 -1
-36 -1 0 227 c0 125 2 229 4 231 3 2 25 3 49 1 l44 -4 32 -126z m306 103 c18
-106 54 -338 60 -380 l6 -50 -35 0 c-33 0 -35 2 -41 40 -3 22 -12 80 -20 130
-8 50 -17 116 -21 148 -3 32 -8 56 -10 54 -2 -2 -9 -39 -14 -83 -6 -43 -13
-94 -16 -111 -6 -31 -5 -33 24 -33 25 0 30 -4 34 -30 4 -29 3 -30 -33 -30 -36
0 -38 -2 -44 -40 -6 -34 -11 -40 -31 -40 -34 0 -39 3 -37 20 6 45 64 417 67
425 2 6 27 10 55 10 49 0 51 -1 56 -30z m260 10 c8 -40 65 -413 65 -426 0 -9
-12 -14 -34 -14 -34 0 -35 1 -41 50 -4 28 -13 86 -20 130 -8 44 -17 106 -21
138 -3 32 -8 57 -9 55 -2 -2 -8 -41 -14 -88 -7 -47 -14 -97 -17 -113 -5 -25
-3 -27 24 -27 25 0 30 -4 34 -30 4 -29 3 -30 -33 -30 -36 0 -38 -2 -44 -40 -6
-37 -9 -40 -39 -40 l-33 0 34 218 c19 119 35 222 37 227 2 6 27 10 55 10 44 0
53 -3 56 -20z m303 -14 l3 -31 -65 0 -66 0 0 -65 0 -65 50 0 50 0 0 -36 0 -36
-50 7 -50 7 0 -72 0 -72 65 4 66 4 -3 -34 -3 -34 -98 -1 -97 -2 0 230 0 230
97 -2 98 -1 3 -31z m243 0 c28 -34 27 -148 -1 -179 l-20 -22 20 -20 c16 -16
20 -33 20 -92 0 -40 3 -82 6 -94 5 -19 2 -21 -33 -19 l-38 3 -3 78 c-3 85 -12
104 -48 104 -24 0 -24 -2 -24 -92 l0 -93 -35 0 -35 0 0 230 0 230 86 -5 c75
-4 88 -8 105 -29z m-231 -106 c0 -48 -4 -52 -34 -30 -11 8 -28 15 -38 15 -17
0 -20 4 -22 33 -1 7 16 15 39 18 22 3 43 7 48 8 4 0 7 -19 7 -44z m0 -170 l0
-46 -40 3 c-23 1 -45 7 -51 14 -13 15 0 47 17 40 7 -3 23 4 36 14 33 28 38 25
38 -25z"/>
<path d="M550 1385 c0 -33 -4 -45 -15 -45 -11 0 -15 11 -15 40 0 33 -3 40 -20
40 -18 0 -20 -5 -16 -47 6 -57 27 -74 70 -57 12 5 16 20 16 60 0 30 -4 54 -10
54 -5 0 -10 -20 -10 -45z"/>
<path d="M611 1414 c-39 -28 -19 -104 28 -104 18 0 41 18 41 33 0 5 -13 6 -30
2 -27 -6 -30 -4 -30 19 0 26 21 48 28 28 6 -18 34 -14 30 4 -5 25 -42 35 -67
18z"/>
<path d="M942 1414 c-41 -28 -21 -104 28 -104 49 0 69 76 28 104 -12 9 -25 16
-28 16 -3 0 -16 -7 -28 -16z m43 -44 c0 -13 -6 -25 -12 -27 -16 -6 -27 21 -19
43 9 23 31 11 31 -16z"/>
<path d="M1104 1415 c-4 -8 -4 -22 0 -30 9 -25 -10 -17 -22 10 -6 14 -18 25
-27 25 -12 0 -15 -12 -15 -55 0 -30 5 -55 10 -55 6 0 10 17 10 38 l1 37 20
-37 c30 -59 49 -50 49 22 0 57 -13 79 -26 45z"/>
<path d="M1310 1398 l-1 -33 -17 28 c-9 15 -25 27 -34 27 -15 0 -18 -9 -18
-55 0 -41 4 -55 14 -55 9 0 16 12 18 33 l3 32 18 -32 c10 -18 24 -33 33 -33
12 0 14 11 12 57 -3 62 -28 90 -28 31z"/>
<path d="M280 1365 l0 -55 40 0 c29 0 40 4 40 15 0 9 -9 15 -25 15 -14 0 -25
5 -25 10 0 6 9 10 20 10 11 0 20 5 20 10 0 6 -9 10 -20 10 -11 0 -20 5 -20 10
0 6 11 10 25 10 14 0 25 5 25 10 0 6 -18 10 -40 10 l-40 0 0 -55z"/>
<path d="M370 1365 c0 -53 1 -55 28 -55 36 0 72 26 72 51 0 41 -19 59 -60 59
l-40 0 0 -55z m65 15 c7 -21 0 -40 -14 -40 -10 0 -21 47 -13 55 11 10 21 5 27
-15z"/>
<path d="M702 1369 c-13 -56 -8 -75 12 -46 16 21 36 22 36 2 0 -9 9 -15 21
-15 13 0 19 5 15 13 -2 6 -10 31 -17 55 -9 33 -16 42 -33 42 -19 0 -25 -9 -34
-51z"/>
<path d="M780 1411 c0 -5 7 -11 15 -15 10 -3 15 -19 15 -46 0 -29 4 -40 15
-40 11 0 15 12 15 45 0 25 5 45 10 45 6 0 10 5 10 10 0 6 -18 10 -40 10 -22 0
-40 -4 -40 -9z"/>
<path d="M870 1365 c0 -42 3 -55 15 -55 12 0 15 13 15 55 0 42 -3 55 -15 55
-12 0 -15 -13 -15 -55z"/>
<path d="M1190 1365 c0 -42 3 -55 15 -55 12 0 15 13 15 55 0 42 -3 55 -15 55
-12 0 -15 -13 -15 -55z"/>
<path d="M401 1229 c-7 -23 -15 -47 -18 -55 -7 -20 17 -17 33 4 13 16 15 16
28 0 23 -30 39 -22 31 15 -13 57 -24 77 -43 77 -13 0 -22 -12 -31 -41z"/>
<path d="M490 1234 c0 -47 16 -74 43 -74 34 0 47 19 47 67 0 30 -4 43 -14 43
-11 0 -13 -10 -9 -41 5 -36 4 -41 -13 -37 -15 3 -18 10 -16 41 3 32 1 37 -17
37 -17 0 -21 -6 -21 -36z"/>
<path d="M607 1264 c-16 -16 -6 -45 18 -54 31 -12 32 -22 3 -18 -28 4 -38 -11
-17 -25 21 -13 65 -2 73 19 8 21 -11 44 -35 44 -11 0 -19 5 -19 10 0 6 11 8
26 4 20 -5 25 -3 22 7 -5 15 -59 25 -71 13z"/>
<path d="M690 1261 c0 -5 6 -11 14 -14 10 -4 13 -17 9 -46 -5 -37 -4 -41 16
-41 20 0 22 4 20 42 -2 26 1 43 9 46 26 8 10 22 -28 22 -22 0 -40 -4 -40 -9z"/>
<path d="M780 1215 c0 -41 4 -55 14 -55 8 0 16 12 18 28 l4 27 12 -27 c15 -37
47 -39 38 -2 -4 15 -2 32 5 40 18 22 -7 44 -52 44 l-39 0 0 -55z"/>
<path d="M899 1215 c-13 -42 -13 -55 -4 -55 7 0 15 7 19 15 3 8 12 15 21 15 8
0 15 -7 15 -15 0 -8 7 -15 16 -15 12 0 15 6 10 26 -4 15 -10 39 -13 55 -4 21
-11 29 -27 29 -17 0 -24 -11 -37 -55z"/>
<path d="M1000 1215 l0 -55 35 0 c24 0 35 5 35 15 0 8 -9 15 -20 15 -17 0 -20
7 -20 40 0 29 -4 40 -15 40 -12 0 -15 -13 -15 -55z"/>
<path d="M1084 1239 c3 -17 6 -42 6 -55 0 -15 6 -24 15 -24 12 0 15 13 15 55
0 49 -2 55 -21 55 -19 0 -21 -4 -15 -31z"/>
<path d="M1150 1229 c-6 -22 -14 -47 -17 -55 -7 -20 17 -18 33 4 13 16 15 16
25 0 10 -18 39 -25 39 -10 0 5 -7 29 -16 55 -21 62 -49 65 -64 6z"/>
<path d="M1349 1066 c-76 -71 -131 -96 -216 -96 -62 0 -78 5 -198 62 -197 94
-253 91 -375 -17 -54 -48 -99 -62 -143 -46 -29 11 -37 41 -11 41 26 0 82 30
88 47 10 24 -2 28 -23 9 -14 -13 -39 -18 -87 -20 l-66 -1 -49 -53 c-54 -58
-64 -90 -26 -76 12 4 45 8 72 8 41 0 59 -6 105 -36 30 -21 72 -44 92 -53 38
-15 38 -15 38 9 0 25 16 36 56 36 30 0 56 13 107 54 46 37 99 38 197 6 36 -12
104 -24 152 -27 81 -5 90 -4 152 25 64 30 148 99 188 154 30 43 9 33 -53 -26z
m-418 -73 c37 -20 67 -38 66 -40 -2 -1 -37 7 -78 18 -117 33 -154 30 -236 -19
-38 -23 -78 -42 -89 -42 -11 0 -29 -7 -40 -15 -25 -19 -54 -19 -82 1 -28 20
-28 34 1 34 25 0 103 46 126 74 21 25 70 49 116 56 49 7 118 -14 216 -67z
m-573 -14 c2 -13 -3 -15 -22 -12 -16 3 -23 10 -19 20 7 18 37 13 41 -8z"/>
<path d="M1220 922 c-57 -33 -177 -41 -260 -17 -107 31 -176 40 -205 27 -34
-16 -41 -37 -23 -75 13 -26 41 -45 157 -104 77 -39 141 -68 141 -64 0 11 -80
85 -132 121 -26 18 -49 39 -52 46 -8 21 28 26 93 13 124 -24 264 3 318 63 20
22 18 22 -37 -10z m-395 -24 c10 -10 -6 -58 -20 -58 -6 0 -20 9 -31 21 -18 20
-18 21 -1 34 18 13 41 14 52 3z"/>
<path d="M577 853 c-16 -15 -4 -31 32 -41 48 -15 125 -16 116 -2 -3 6 -18 10
-33 10 -15 0 -40 9 -57 20 -31 21 -47 24 -58 13z"/>
<path d="M1290 440 c0 -66 1 -70 23 -70 34 0 47 19 47 70 0 51 -13 70 -47 70
-22 0 -23 -4 -23 -70z"/>
</g>
</svg>
