<?xml version="1.0" standalone="no"?>
<!DOCTYPE svg PUBLIC "-//W3C//DTD SVG 20010904//EN"
 "http://www.w3.org/TR/2001/REC-SVG-20010904/DTD/svg10.dtd">
<svg version="1.0" xmlns="http://www.w3.org/2000/svg"
 width="170.000000pt" height="168.000000pt" viewBox="0 0 170.000000 168.000000"
 preserveAspectRatio="xMidYMid meet">
<metadata>
Created by potrace 1.10, written by Peter Selinger 2001-2011
</metadata>
<g transform="translate(0.000000,168.000000) scale(0.100000,-0.100000)"
fill="#000000" stroke="none">
<path d="M725 1644 c-48 -8 -166 -44 -215 -66 -259 -117 -442 -372 -468 -653
-24 -259 57 -477 243 -661 79 -78 106 -98 196 -141 140 -69 223 -88 374 -87
98 1 136 6 208 28 238 71 407 216 512 439 58 121 70 183 69 347 0 137 -2 150
-33 240 -46 137 -99 220 -205 325 -154 152 -322 224 -536 230 -63 2 -128 1
-145 -1z m255 -28 c155 -28 286 -95 402 -204 312 -295 331 -781 43 -1100 -167
-184 -424 -282 -664 -253 -116 14 -178 34 -286 89 -71 37 -109 65 -181 137
-102 101 -157 189 -201 320 -24 72 -27 95 -27 230 -1 130 2 160 22 225 124
392 500 627 892 556z"/>
<path d="M592 1571 c-8 -4 -12 -17 -10 -27 2 -14 -3 -19 -19 -18 -12 0 -20 -2
-18 -6 2 -4 -17 -17 -43 -29 -83 -40 -169 -114 -112 -96 15 5 18 3 14 -9 -5
-12 -2 -15 10 -10 9 3 16 1 16 -5 0 -6 -10 -11 -22 -11 -20 -1 -21 -2 -6 -10
24 -15 51 -1 45 22 -5 18 -4 19 12 4 31 -28 33 -17 5 20 -22 29 -25 37 -14 44
10 6 21 2 33 -11 20 -21 33 -24 42 -9 9 14 57 -11 51 -27 -7 -17 4 -16 28 2
11 8 14 15 7 15 -6 0 -11 6 -9 14 3 16 -4 19 -27 9 -23 -8 -30 4 -14 23 8 10
13 25 11 36 -6 33 26 19 38 -17 6 -19 16 -35 21 -35 12 0 12 5 -5 45 -14 33
-14 34 16 44 39 14 58 14 58 1 0 -5 -11 -10 -25 -10 -15 0 -25 -6 -25 -14 0
-17 28 -41 37 -32 3 3 2 6 -4 6 -6 0 -13 7 -17 15 -8 22 37 15 46 -7 12 -29
29 -22 18 8 -16 41 -12 54 15 54 20 0 24 -5 22 -22 -1 -15 4 -23 18 -26 11 -2
25 -12 32 -21 10 -13 11 -8 6 32 -5 39 -3 47 11 47 12 0 16 -10 16 -39 0 -22
5 -43 10 -46 6 -4 10 12 10 39 0 35 4 46 16 46 8 0 12 5 9 11 -8 12 -156 3
-209 -12 -19 -6 -34 -5 -43 3 -7 6 -16 8 -20 4 -3 -3 -1 -6 6 -6 7 0 9 -4 6
-10 -3 -5 -13 -10 -21 -10 -11 0 -13 6 -9 20 7 22 6 23 -13 11z m215 -45 c-4
-9 -13 -16 -21 -16 -11 0 -12 5 -3 24 13 27 34 19 24 -8z m-257 -43 c-1 -13
-38 -53 -49 -53 -20 0 -11 37 12 48 27 13 37 14 37 5z"/>
<path d="M980 1549 c0 -6 7 -9 15 -5 8 3 15 2 15 -3 0 -5 -9 -11 -20 -14 -12
-3 -20 -14 -20 -25 0 -21 26 -37 35 -22 11 18 23 10 18 -10 -3 -11 -1 -20 4
-20 6 0 14 18 19 39 l9 39 53 -20 c29 -11 52 -26 52 -34 0 -8 -4 -14 -10 -14
-5 0 -10 -9 -10 -19 0 -15 5 -18 21 -14 19 5 20 3 14 -18 -5 -13 -8 -30 -8
-36 0 -18 -7 -16 -23 5 -7 9 -14 12 -14 5 0 -17 30 -45 44 -40 6 2 11 12 11
23 0 21 24 84 33 84 11 0 72 -42 72 -51 0 -14 -16 -11 -30 6 -14 16 -30 11
-30 -10 0 -8 7 -11 20 -8 21 5 28 -11 10 -22 -5 -3 -10 -14 -10 -23 0 -12 8
-8 28 15 17 21 31 30 40 25 9 -6 6 -14 -13 -32 -14 -13 -25 -30 -25 -39 0 -10
11 -4 33 17 32 31 34 32 49 15 27 -32 33 -49 10 -29 -20 17 -22 17 -28 2 -3
-9 -1 -23 6 -31 7 -9 10 -18 6 -22 -3 -4 -12 2 -20 12 -9 13 -15 15 -20 6 -4
-6 -3 -18 3 -25 6 -7 8 -16 4 -19 -3 -4 -1 -7 5 -7 7 0 12 5 12 10 0 6 7 10
15 10 18 0 20 36 3 43 -7 2 -10 7 -7 11 3 3 19 0 35 -9 39 -20 47 -19 34 4 -8
16 -6 22 7 30 10 6 13 11 6 11 -6 0 -15 -5 -18 -10 -4 -6 -38 19 -78 55 -79
72 -193 136 -283 160 -70 18 -74 18 -74 4z m39 -40 c-29 -23 -39 -24 -39 -4 0
9 6 12 15 9 8 -4 17 1 21 10 3 9 11 13 16 10 6 -4 1 -14 -13 -25z"/>
<path d="M1070 1477 c0 -21 11 -47 20 -47 4 0 6 12 4 28 -2 15 -1 19 2 10 6
-20 13 -22 34 -8 19 11 11 18 -28 26 -25 5 -32 3 -32 -9z"/>
<path d="M716 1379 c-85 -20 -189 -80 -257 -148 -110 -110 -163 -240 -162
-396 2 -233 142 -433 359 -511 44 -16 64 -20 72 -12 8 8 -6 17 -51 32 -78 26
-148 71 -210 134 -47 48 -69 102 -42 102 8 0 11 8 8 20 -4 15 0 20 13 20 11 0
26 5 34 10 13 9 13 11 0 20 -8 5 -26 10 -38 10 -15 0 -26 7 -29 20 -5 19 -19
25 -55 22 -10 -1 -18 4 -18 12 0 7 -3 28 -6 45 -6 29 -5 31 22 31 33 0 44 -7
60 -35 7 -12 20 -19 33 -18 12 2 21 -2 21 -8 0 -8 5 -7 15 1 23 19 18 40 -20
93 -28 38 -41 47 -65 47 -17 0 -30 4 -30 9 0 5 -8 8 -17 7 -10 0 -19 7 -21 17
-3 14 4 17 40 18 43 1 48 1 80 -8 11 -3 29 6 47 26 29 30 30 31 40 12 14 -25
14 -31 0 -31 -13 0 -48 -40 -49 -56 0 -20 58 -66 96 -74 52 -12 74 -4 74 27 0
17 4 23 14 20 20 -8 56 21 56 44 0 11 7 19 18 19 16 0 62 56 75 93 16 43 78
-4 112 -86 19 -45 52 -74 67 -59 15 15 53 15 79 2 24 -13 26 4 4 27 -14 14
-14 17 0 32 8 10 15 26 15 35 0 14 5 17 24 12 20 -5 25 -2 28 15 2 14 16 27
41 36 36 15 39 15 63 -8 16 -15 24 -32 22 -49 -3 -23 -7 -25 -59 -27 -30 -1
-67 -7 -82 -12 l-28 -11 23 -30 c24 -33 43 -38 52 -15 3 8 12 15 20 15 9 0 13
-6 11 -13 -3 -6 5 -17 17 -22 12 -6 23 -16 26 -22 4 -15 -25 -18 -30 -4 -3 11
-88 2 -88 -9 0 -14 65 -82 93 -96 17 -10 40 -13 58 -9 24 5 29 12 29 36 0 16
-6 38 -12 49 -10 15 -10 22 0 32 10 10 16 8 30 -6 12 -14 14 -20 5 -23 -17 -6
-16 -23 2 -43 13 -15 13 -22 1 -57 -44 -124 -130 -232 -237 -295 -75 -45 -60
-64 16 -21 112 62 216 200 250 328 19 76 19 214 0 290 -49 186 -204 339 -395
390 -61 16 -203 18 -264 4z m235 -23 c133 -29 261 -118 336 -234 46 -71 97
-217 60 -172 -7 8 -19 15 -27 15 -8 0 -19 15 -24 33 -12 43 -180 202 -212 202
-15 0 -25 8 -30 23 -9 29 -22 37 -55 30 -20 -4 -37 2 -63 22 -20 15 -57 32
-83 36 -38 8 -51 6 -79 -11 -18 -12 -34 -30 -36 -42 -2 -15 -11 -22 -31 -24
-36 -4 -89 -37 -154 -95 -29 -25 -64 -50 -79 -53 -14 -4 -33 -14 -41 -21 -16
-17 -61 -30 -70 -22 -11 11 57 113 113 169 93 94 236 155 364 157 25 0 75 -6
111 -13z m-63 -140 c8 -5 32 -11 55 -14 23 -2 44 -7 47 -11 3 -5 14 -8 25 -8
11 0 34 0 50 -1 l30 -2 -25 -20 c-17 -13 -34 -18 -51 -14 -19 3 -28 0 -33 -11
-3 -9 -10 -13 -16 -10 -6 4 -10 -5 -10 -19 0 -33 -13 -33 -30 -1 -7 13 -25 27
-41 30 -32 7 -41 24 -32 65 5 28 4 30 -25 30 -34 0 -52 16 -25 22 16 4 47 -10
81 -36z m-64 -15 c-10 -10 -48 -7 -56 4 -15 20 -7 23 27 12 19 -6 32 -13 29
-16z m-64 -16 c7 -8 20 -15 29 -15 10 0 28 -12 42 -26 27 -30 103 -84 117 -84
5 0 21 11 36 25 15 14 37 25 50 25 12 0 31 7 42 15 10 8 25 15 31 15 14 0 93
-68 93 -80 0 -5 -25 -24 -55 -44 -30 -20 -68 -57 -85 -81 -39 -57 -69 -60 -93
-10 -9 19 -33 52 -53 75 -45 50 -75 52 -112 8 -39 -46 -163 -168 -181 -178
-20 -10 -81 14 -81 32 1 7 7 24 15 38 19 34 18 42 -5 68 -20 22 -21 22 -56 3
-25 -13 -49 -18 -86 -15 -28 2 -53 6 -56 8 -9 9 8 36 25 42 58 17 168 79 214
120 78 69 142 92 169 59z m592 -289 c13 -31 5 -55 -19 -54 -10 0 -25 -2 -33
-6 -10 -4 -24 2 -38 17 l-23 24 33 22 c43 27 66 26 80 -3z m-73 -128 c16 -43
-15 -52 -51 -16 l-22 22 24 7 c39 11 40 10 49 -13z"/>
<path d="M234 1249 c-46 -69 -103 -197 -104 -231 0 -32 18 -19 24 17 4 19 12
35 17 35 7 0 8 -12 4 -30 -6 -26 -4 -30 14 -30 19 0 20 2 9 20 -16 24 -6 35
21 21 11 -6 22 -7 25 -3 3 5 -13 14 -35 21 -30 9 -39 16 -35 27 3 9 6 17 6 18
0 1 14 1 30 -2 19 -3 30 0 30 8 0 7 8 9 20 5 11 -3 20 -2 20 4 0 5 -16 15 -35
21 -19 6 -35 18 -35 25 0 23 15 25 46 4 31 -20 44 -24 44 -11 0 5 -16 16 -35
25 -30 14 -34 20 -26 35 22 37 50 66 57 59 4 -4 -3 -18 -15 -31 l-23 -24 21
-12 c15 -7 27 -8 39 -1 14 9 13 10 -10 11 -16 0 -28 5 -28 11 0 6 7 9 15 5 9
-3 15 0 15 10 0 12 3 12 25 -2 14 -9 25 -13 25 -9 0 6 -69 75 -76 75 -1 0 -24
-32 -50 -71z m-6 -116 c2 -8 -5 -13 -17 -13 -12 0 -21 6 -21 16 0 18 31 15 38
-3z"/>
<path d="M1465 1199 c6 -18 4 -20 -14 -14 -17 5 -23 1 -31 -20 -14 -37 -12
-45 5 -15 13 23 14 24 21 6 5 -13 1 -23 -11 -32 -32 -24 -8 -27 29 -5 22 14
37 18 41 11 11 -18 -5 -50 -26 -50 -16 0 -19 -6 -16 -35 2 -39 4 -40 43 -25
20 8 29 8 34 -1 5 -7 10 -8 14 -1 6 11 -29 113 -58 171 -19 35 -41 43 -31 10z
m65 -139 c0 -24 -45 -28 -54 -5 -3 9 0 15 8 15 8 0 17 -6 19 -12 3 -8 6 -6 6
5 1 24 21 22 21 -3z"/>
<path d="M160 931 c0 -16 -7 -21 -27 -21 -26 -1 -27 -2 -10 -15 13 -9 17 -20
12 -34 -7 -23 4 -28 23 -9 9 9 15 9 24 0 18 -18 30 -14 19 7 -8 15 -6 22 12
34 l22 16 -27 0 c-18 1 -28 6 -28 15 0 8 -4 18 -10 21 -5 3 -10 -3 -10 -14z"/>
<path d="M1515 933 c-5 -16 -15 -23 -34 -24 l-26 0 22 -16 c18 -12 20 -19 12
-34 -11 -21 1 -25 19 -7 9 9 15 9 24 0 19 -19 30 -14 23 9 -5 14 -1 25 12 34
17 13 16 14 -9 15 -19 0 -28 6 -31 23 l-4 22 -8 -22z"/>
<path d="M793 874 c4 -21 0 -39 -13 -59 -22 -33 -18 -45 14 -45 41 0 50 -88
14 -128 -38 -40 -31 -111 20 -216 24 -48 40 -91 37 -96 -3 -6 -21 -10 -38 -10
-18 -1 -45 -7 -62 -14 -43 -20 -16 -28 81 -24 l79 3 -3 27 -3 27 53 -24 c54
-25 107 -31 143 -15 20 9 20 9 0 10 -11 0 -39 9 -63 20 -51 23 -72 64 -72 138
0 57 -14 101 -47 155 -36 58 -73 169 -73 221 0 43 -13 62 -23 34 -3 -9 -11 -7
-27 7 l-23 20 6 -31z m114 -282 c21 -38 34 -78 38 -117 3 -33 8 -72 11 -86 4
-22 1 -27 -20 -31 -26 -5 -48 3 -47 18 0 5 -14 38 -31 74 -41 87 -47 137 -18
173 12 15 24 27 28 27 4 0 21 -26 39 -58z"/>
<path d="M1016 824 c-3 -9 4 -25 19 -40 14 -14 23 -30 19 -35 -3 -6 3 -13 14
-16 11 -3 18 -11 16 -18 -6 -16 18 -26 37 -15 7 5 18 5 25 -1 8 -7 14 -6 19 1
7 11 -11 45 -41 75 -14 14 -15 21 -6 36 7 10 8 20 2 24 -5 3 -11 1 -15 -5 -8
-13 -45 -13 -45 0 0 16 -37 11 -44 -6z"/>
<path d="M90 779 c0 -5 7 -9 15 -9 17 0 20 -25 5 -35 -13 -8 -13 -52 0 -60 5
-3 7 -12 4 -19 -3 -8 -1 -17 5 -21 6 -3 11 -17 11 -31 0 -13 5 -24 10 -24 6 0
10 -11 10 -25 0 -14 4 -25 9 -25 5 0 8 8 7 18 -1 23 28 22 32 -1 2 -12 -3 -20
-16 -23 -18 -5 -18 -7 -3 -40 8 -19 19 -34 23 -34 4 0 8 -6 8 -14 0 -30 25
-36 58 -13 32 22 41 37 22 37 -5 0 -10 -5 -10 -11 0 -5 -4 -8 -10 -4 -5 3 -7
12 -3 20 7 19 -11 19 -27 0 -7 -8 -17 -15 -23 -15 -5 0 -2 9 8 20 17 18 16 21
-5 65 -12 25 -25 45 -30 45 -4 0 -6 9 -3 21 4 15 0 22 -16 26 -11 3 -21 13
-21 22 0 14 2 14 10 1 5 -8 12 -11 16 -7 4 3 1 13 -6 22 -7 9 -10 18 -7 22 8
7 -11 33 -24 33 -5 0 -9 -6 -9 -14 0 -8 -4 -18 -10 -21 -5 -3 -10 3 -10 14 0
14 13 27 38 40 25 13 32 21 22 24 -68 23 -80 25 -80 16z"/>
<path d="M1535 749 c-4 -6 -4 -13 -1 -16 3 -4 6 -1 6 5 0 7 9 12 20 12 11 0
20 -4 20 -10 0 -5 -5 -10 -11 -10 -5 0 -7 -5 -4 -10 9 -15 25 -2 25 21 0 14
-7 19 -24 19 -14 0 -28 -5 -31 -11z"/>
<path d="M1490 682 c0 -9 81 -24 89 -16 8 7 -3 12 -46 19 -26 4 -43 3 -43 -3z"/>
<path d="M1511 639 c-20 -55 -23 -72 -12 -65 6 4 18 3 27 -2 24 -13 -1 -26
-25 -12 -24 12 -31 13 -31 1 0 -5 12 -12 28 -16 25 -7 25 -8 7 -15 -28 -12
-43 -12 -25 0 9 6 10 10 3 10 -18 0 -27 -20 -15 -32 8 -8 16 -7 28 3 16 12 17
12 11 -3 -3 -10 -2 -18 3 -18 6 0 10 7 10 15 0 9 8 27 17 41 16 26 13 35 -19
46 -4 2 -5 13 -2 26 7 24 28 29 40 10 5 -8 2 -9 -10 -5 -12 5 -16 3 -14 -5 7
-21 33 -14 36 10 2 12 -1 22 -6 22 -6 0 -17 3 -26 6 -11 4 -19 -2 -25 -17z"/>
<path d="M1450 491 c0 -5 9 -11 21 -14 12 -3 18 -10 14 -16 -4 -8 -12 -8 -26
0 -12 6 -23 8 -27 5 -8 -8 -1 -13 29 -21 33 -8 50 22 23 42 -21 15 -34 17 -34
4z"/>
<path d="M1390 445 c0 -10 40 -75 46 -75 9 0 -8 45 -20 52 -16 11 -2 10 28 -2
14 -5 26 -6 26 -1 0 5 -11 12 -24 15 -13 3 -31 9 -40 12 -9 3 -16 3 -16 -1z"/>
<path d="M260 405 c-25 -30 10 -61 38 -33 9 9 12 9 12 0 0 -6 -8 -15 -17 -21
-10 -5 -15 -13 -10 -17 4 -4 16 1 27 11 18 17 20 17 20 1 0 -9 -7 -19 -15 -22
-8 -4 -12 -10 -9 -16 7 -11 44 19 44 36 0 11 -62 76 -72 76 -3 0 -11 -7 -18
-15z"/>
<path d="M1338 351 l-26 -29 22 -21 c12 -12 25 -18 29 -14 4 3 -2 13 -13 20
-11 8 -18 19 -14 24 4 6 13 4 24 -6 17 -15 20 -15 38 1 21 17 21 17 -3 36 -13
10 -25 18 -27 18 -1 0 -15 -13 -30 -29z"/>
<path d="M355 290 c-9 -29 10 -48 33 -34 24 16 22 48 -5 52 -15 2 -23 -3 -28
-18z"/>
<path d="M1268 289 c-26 -19 -27 -21 -12 -45 9 -13 20 -21 26 -18 5 3 1 12 -9
19 -24 18 -10 30 16 13 17 -11 23 -10 37 4 14 14 15 20 4 32 -16 21 -29 20
-62 -5z"/>
<path d="M435 292 c-18 -13 -46 -62 -35 -62 6 0 13 7 16 15 4 8 12 15 20 15 8
0 13 6 12 13 -2 6 3 11 10 10 6 -2 12 2 12 7 0 12 -20 13 -35 2z"/>
<path d="M1205 280 c-7 -11 34 -84 42 -76 2 2 -3 18 -12 35 -9 18 -13 36 -10
41 3 6 2 10 -4 10 -5 0 -13 -5 -16 -10z"/>
<path d="M463 234 c-12 -18 -18 -36 -13 -39 5 -3 11 4 15 15 10 30 25 24 25
-11 0 -16 4 -28 9 -24 10 5 3 75 -8 87 -3 3 -16 -9 -28 -28z"/>
<path d="M519 233 c-2 -19 -2 -63 0 -75 1 -5 9 -8 19 -8 14 0 14 2 3 9 -16 10
-8 41 11 41 9 0 8 -3 -2 -10 -13 -8 -12 -10 3 -10 20 0 20 -1 7 -34 -6 -16 -6
-27 0 -31 6 -4 10 0 10 8 0 17 42 17 53 0 13 -20 34 -15 40 9 7 27 1 38 -21
37 -11 0 -12 -3 -4 -6 15 -6 16 -30 0 -39 -8 -5 -9 -2 -5 9 3 10 3 17 -2 17
-5 0 -11 9 -14 20 -3 12 -14 20 -25 20 -12 0 -24 5 -28 11 -3 6 -15 9 -25 6
-21 -6 -25 3 -8 20 8 8 8 13 0 17 -6 4 -12 -1 -12 -11z"/>
<path d="M1150 241 c0 -5 6 -12 13 -14 6 -3 -3 -10 -20 -17 -37 -13 -38 -15
-19 -49 8 -14 16 -19 20 -13 3 6 2 13 -4 17 -13 8 -13 35 -1 35 5 0 13 -9 16
-20 3 -11 11 -20 16 -20 6 0 5 8 -1 21 -7 11 -9 23 -7 26 3 2 11 -5 17 -17 19
-36 22 -15 4 24 -17 34 -34 48 -34 27z"/>
<path d="M683 168 c-1 -13 -5 -33 -8 -45 -3 -13 -1 -23 5 -23 5 0 10 10 10 23
0 12 3 32 6 45 4 12 2 22 -3 22 -5 0 -10 -10 -10 -22z"/>
<path d="M1047 178 c-22 -8 -26 -14 -21 -31 10 -35 28 -47 20 -14 -7 31 9 38
19 7 3 -11 10 -20 15 -20 6 0 6 10 0 25 -6 17 -6 25 1 25 6 0 13 -9 16 -20 3
-11 9 -20 14 -20 12 0 11 4 -3 35 -12 27 -19 29 -61 13z"/>
<path d="M940 140 c9 -49 -4 -52 -21 -5 -7 19 -16 35 -19 35 -6 0 -30 -68 -30
-84 0 -3 5 -6 10 -6 6 0 10 15 10 33 l1 32 17 -27 c9 -16 25 -28 36 -28 15 0
17 5 12 31 -3 17 -6 38 -6 45 0 8 -4 14 -9 14 -4 0 -5 -18 -1 -40z"/>
<path d="M711 151 c-7 -5 -11 -19 -9 -32 3 -21 8 -24 49 -25 25 0 51 -4 58 -8
7 -5 18 -3 24 3 8 8 6 11 -6 11 -11 0 -17 8 -17 23 0 17 2 19 10 7 5 -8 12
-11 16 -7 4 4 2 13 -4 19 -9 9 -16 7 -32 -7 -17 -15 -23 -16 -33 -5 -10 10 -9
12 6 7 9 -4 17 -2 17 4 0 7 -9 9 -22 6 -12 -4 -27 -2 -33 3 -6 5 -17 5 -24 1z
m32 -31 c4 0 15 -3 24 -9 13 -7 8 -8 -18 -6 -18 1 -34 8 -33 14 3 30 6 35 13
18 4 -10 10 -18 14 -17z"/>
</g>
</svg>
