<?xml version="1.0" standalone="no"?>
<!DOCTYPE svg PUBLIC "-//W3C//DTD SVG 20010904//EN"
 "http://www.w3.org/TR/2001/REC-SVG-20010904/DTD/svg10.dtd">
<svg version="1.0" xmlns="http://www.w3.org/2000/svg"
 width="193.000000pt" height="182.000000pt" viewBox="0 0 193.000000 182.000000"
 preserveAspectRatio="xMidYMid meet">
<metadata>
Created by potrace 1.10, written by Peter Selinger 2001-2011
</metadata>
<g transform="translate(0.000000,182.000000) scale(0.100000,-0.100000)"
fill="#000000" stroke="none">
<path d="M1140 1253 c-26 -10 -57 -47 -70 -85 -11 -30 -11 -45 -1 -79 21 -71
62 -97 139 -89 43 5 59 12 83 38 16 18 27 32 23 32 -3 0 1 11 10 25 20 31 13
110 -11 119 -12 5 -13 0 -8 -27 9 -42 9 -38 1 -70 -13 -44 -60 -77 -112 -77
-32 0 -44 4 -44 15 0 8 -7 15 -15 15 -10 0 -15 10 -15 31 0 16 -4 28 -9 24 -5
-3 -12 -1 -16 5 -3 5 1 10 9 10 9 0 16 6 16 13 0 32 44 56 110 59 l65 3 -22
23 c-18 17 -34 22 -70 21 -27 0 -55 -3 -63 -6z"/>
<path d="M178 1087 l-28 -11 0 -253 0 -253 50 0 50 0 0 251 c0 228 -2 253 -17
265 -21 15 -19 15 -55 1z m42 -101 c0 -30 -4 -57 -8 -60 -5 -3 -5 -38 0 -77
11 -90 6 -229 -7 -229 -15 -1 -23 85 -24 247 -1 149 2 173 25 173 10 0 14 -15
14 -54z"/>
<path d="M413 1080 c-27 -12 -52 -34 -70 -61 -28 -42 -28 -45 -28 -193 0 -132
2 -155 19 -183 41 -67 109 -90 227 -77 46 5 71 14 102 38 60 46 66 60 37 91
-27 29 -42 31 -60 9 -19 -22 -89 -54 -121 -54 -36 0 -85 29 -99 59 -6 13 -9
26 -6 28 3 3 1 16 -4 29 -7 17 -6 24 3 24 6 1 78 1 160 0 l147 -1 0 95 c0 63
-4 99 -13 108 -7 7 -20 26 -30 41 -40 62 -176 86 -264 47z m49 -57 c-15 -12
-35 -22 -45 -23 -10 0 -15 -4 -12 -10 3 -5 -2 -19 -13 -30 -10 -11 -18 -30
-16 -43 1 -12 3 -27 3 -34 1 -6 10 -15 21 -18 26 -8 25 -30 0 -55 -13 -13 -22
-37 -24 -63 -2 -36 1 -45 23 -59 14 -10 20 -18 14 -18 -7 0 -13 -5 -13 -10 0
-6 6 -10 13 -9 28 3 48 -2 42 -11 -4 -6 -11 -8 -16 -5 -5 3 -6 -1 -3 -9 7 -18
24 -22 24 -6 0 6 9 10 20 10 11 0 20 -4 20 -10 0 -5 20 -10 45 -10 33 0 45 4
45 15 0 8 3 14 8 14 4 -1 16 -1 27 0 15 1 16 4 7 10 -10 6 -10 10 3 21 13 11
15 9 15 -8 0 -16 5 -20 18 -15 38 13 -24 -24 -68 -40 -34 -12 -55 -14 -85 -7
-25 6 -42 5 -45 -1 -12 -19 -84 33 -104 74 -16 34 -18 56 -14 180 5 127 7 142
26 158 12 9 18 20 14 24 -4 4 10 5 31 1 29 -5 37 -4 32 4 -4 7 -1 16 6 21 27
16 28 -16 1 -38z m136 19 c12 -8 22 -12 22 -8 0 9 41 -27 51 -46 7 -14 6 -18
-6 -18 -8 0 -16 8 -16 18 -1 15 -2 16 -6 0 -6 -24 -33 -11 -33 17 0 16 -6 22
-22 22 -35 0 -88 15 -88 24 0 14 73 7 98 -9z m-9 -61 c21 -21 46 -89 37 -99
-9 -9 -216 -9 -222 0 -6 10 23 78 43 100 23 26 116 25 142 -1z m81 -37 c0 -8
4 -14 8 -14 11 0 15 -90 5 -91 -4 0 -18 -2 -30 -5 -28 -5 -29 6 -4 54 16 31
17 39 5 50 -19 17 -18 33 1 26 8 -4 15 -12 15 -20z"/>
<path d="M1398 1078 c-21 -11 -52 -38 -70 -61 l-33 -41 0 -201 0 -200 43 -3
42 -3 0 185 c0 117 4 186 10 186 6 0 10 6 10 14 0 26 42 46 97 46 53 0 59 -3
101 -54 8 -11 12 -65 12 -191 0 -174 0 -176 23 -184 28 -11 77 -3 78 13 3 48
0 346 -3 353 -3 4 -8 19 -12 33 -8 36 -54 84 -103 109 -54 27 -142 27 -195 -1z
m122 -19 c0 -7 10 -9 25 -5 14 4 25 2 25 -4 0 -5 7 -10 16 -10 22 0 43 -24 40
-46 -2 -11 -1 -13 1 -6 8 23 25 12 19 -12 -4 -17 -1 -25 12 -28 15 -4 17 -22
20 -164 2 -153 -5 -204 -24 -173 -4 8 -10 86 -12 174 -3 125 -7 162 -18 168
-8 4 -14 17 -14 27 0 11 -6 20 -13 20 -7 0 -22 8 -33 18 -24 23 -52 34 -56 22
-2 -6 -15 -6 -33 -1 -29 8 -28 10 15 24 24 9 30 8 30 -4z m-88 -24 c-1 -5 -9
-10 -18 -10 -10 0 -23 -17 -33 -40 -9 -22 -20 -47 -26 -55 -6 -8 -10 -79 -10
-157 0 -87 -4 -144 -10 -145 -6 -2 -10 57 -10 162 0 103 4 165 10 165 16 0 35
15 35 28 0 7 -4 6 -10 -3 -5 -8 -12 -11 -16 -7 -4 4 1 17 12 29 10 12 24 28
29 35 11 15 51 13 47 -2z"/>
<path d="M875 1064 c-44 -22 -76 -61 -86 -102 -10 -42 -12 -352 -3 -376 7 -19
79 -22 90 -4 4 6 6 89 5 185 l-2 173 27 25 c22 20 37 25 80 25 l54 0 0 45 0
45 -67 0 c-42 0 -80 -6 -98 -16z m45 -46 c0 -5 -10 -8 -22 -8 -13 0 -30 -5
-38 -11 -12 -8 -10 -9 7 -4 18 5 22 3 17 -9 -8 -20 -54 -21 -54 -1 0 8 16 22
35 31 19 9 35 21 35 28 0 12 20 -14 20 -26z m-53 -78 c4 -13 3 -13 -6 0 -6 8
-11 13 -12 10 -2 -5 -9 -234 -9 -285 0 -16 -5 -37 -10 -45 -7 -10 -10 35 -10
140 0 85 -3 165 -7 178 -5 21 -3 23 22 20 16 -2 30 -10 32 -18z"/>
<path d="M1098 768 c3 -201 5 -208 49 -208 48 0 53 18 53 212 l0 180 -25 -4
c-14 -3 -28 -1 -31 3 -3 5 -15 9 -27 9 -22 0 -22 0 -19 -192z m64 -8 c1 -88
-2 -142 -10 -155 -9 -16 -11 15 -12 145 0 106 3 161 10 154 5 -5 10 -70 12
-144z"/>
</g>
</svg>
