<?xml version="1.0" standalone="no"?>
<!DOCTYPE svg PUBLIC "-//W3C//DTD SVG 20010904//EN"
 "http://www.w3.org/TR/2001/REC-SVG-20010904/DTD/svg10.dtd">
<svg version="1.0" xmlns="http://www.w3.org/2000/svg"
 width="170.000000pt" height="122.000000pt" viewBox="0 0 170.000000 122.000000"
 preserveAspectRatio="xMidYMid meet">
<metadata>
Created by potrace 1.10, written by Peter Selinger 2001-2011
</metadata>
<g transform="translate(0.000000,122.000000) scale(0.100000,-0.100000)"
fill="#000000" stroke="none">
<path d="M795 1161 c-24 -5 -30 -12 -30 -31 0 -32 -40 -41 -60 -14 -11 15 -18
17 -42 8 -23 -8 -27 -15 -25 -37 2 -21 -3 -30 -24 -39 -22 -10 -28 -10 -39 6
-13 17 -15 17 -44 0 -32 -19 -38 -33 -21 -50 7 -7 2 -18 -15 -34 -24 -22 -26
-23 -42 -7 -16 16 -19 15 -45 -10 -25 -24 -27 -28 -12 -44 13 -14 13 -20 2
-38 -10 -17 -19 -20 -43 -15 -27 5 -33 2 -43 -22 -11 -22 -10 -29 3 -44 22
-25 1 -61 -34 -58 -33 4 -53 -48 -26 -68 24 -18 11 -54 -21 -54 -19 0 -24 -5
-24 -24 0 -26 -16 -36 -61 -36 -32 0 -65 27 -79 65 -5 14 -14 25 -20 25 -18 0
-11 -57 12 -85 49 -63 151 -73 244 -25 l57 31 26 -24 c14 -14 39 -32 54 -42
33 -21 51 -54 62 -110 10 -56 29 -89 61 -103 34 -16 232 -47 241 -38 10 10 1
15 -108 56 -57 22 -110 48 -116 57 -21 27 -16 41 13 35 20 -4 35 5 74 44 105
105 103 104 186 104 59 0 74 3 74 15 0 8 7 15 15 15 9 0 15 9 15 25 0 16 6 25
15 25 8 0 15 9 15 20 0 13 7 20 20 20 13 0 20 7 20 19 0 15 6 19 28 18 22 -2
27 2 27 22 0 28 -60 65 -97 59 -23 -4 -23 -4 4 -17 15 -8 29 -19 32 -26 7 -18
-92 -118 -110 -111 -8 3 -14 9 -14 14 0 12 -113 72 -136 72 -9 0 -26 -8 -37
-17 -18 -17 -21 -15 -70 40 -50 55 -104 87 -147 87 -29 0 -92 -34 -137 -73
-25 -22 -35 -26 -30 -14 4 10 7 34 7 52 0 26 5 35 23 41 38 11 57 35 57 71 0
29 3 33 28 33 36 0 66 22 82 60 11 26 18 31 38 27 35 -7 65 9 86 44 14 24 20
27 36 19 30 -16 47 -12 82 19 30 26 35 28 53 15 25 -18 59 -18 96 1 27 15 32
14 68 -7 36 -21 43 -21 77 -9 36 13 38 12 67 -19 l29 -31 -21 -16 c-12 -8 -34
-26 -49 -39 l-27 -23 35 9 c19 5 44 21 56 36 l21 25 17 -25 c9 -14 27 -28 41
-32 28 -7 32 -19 10 -28 -31 -11 -15 -35 33 -49 57 -17 67 -12 29 15 -15 11
-27 27 -27 37 0 10 -16 32 -36 49 -19 17 -33 36 -29 42 12 19 32 10 56 -27 21
-33 30 -38 67 -41 36 -3 42 -6 42 -25 0 -34 27 -66 63 -75 23 -6 31 -14 30
-28 -2 -26 26 -70 53 -83 19 -8 23 -16 18 -39 -5 -23 1 -36 25 -64 22 -26 28
-41 24 -59 -8 -32 -20 -39 -68 -38 -64 2 -80 10 -146 82 l-62 68 34 29 c42 36
19 41 -41 10 -31 -16 -40 -26 -40 -46 0 -21 3 -24 21 -19 15 5 22 2 26 -14 3
-12 12 -21 19 -21 8 0 19 -11 24 -25 5 -14 14 -25 20 -25 5 0 10 -9 10 -20 0
-13 7 -20 20 -20 13 0 18 -5 14 -15 -5 -13 11 -15 111 -15 l117 0 -21 33 c-18
30 -18 34 -4 43 25 16 9 66 -19 62 -31 -4 -51 49 -25 63 15 9 16 13 2 38 -11
22 -20 27 -38 24 -35 -7 -54 20 -37 52 12 22 11 27 -5 45 -12 14 -25 18 -42
14 -33 -9 -55 13 -48 46 4 19 0 32 -20 50 -24 23 -25 23 -45 5 -19 -18 -21
-17 -41 1 -14 12 -18 25 -14 41 4 19 -1 26 -30 40 -36 17 -45 14 -57 -20 -2
-4 -18 -2 -36 5 -25 10 -32 17 -30 37 2 19 -3 26 -27 33 -25 7 -32 4 -44 -12
-9 -13 -25 -20 -47 -20 -30 0 -34 3 -34 25 0 23 -4 25 -40 25 -33 0 -40 -3
-40 -20 0 -16 -7 -20 -31 -20 -17 0 -38 8 -47 18 -13 14 -25 17 -47 13z m-238
-381 c15 -6 34 -19 41 -28 35 -47 127 -132 141 -132 23 0 59 30 45 36 -25 11
-49 33 -42 39 4 4 27 -5 52 -21 24 -16 58 -37 75 -46 47 -26 40 -41 -16 -34
-52 7 -66 0 -96 -47 -10 -15 -31 -36 -47 -46 -17 -10 -43 -36 -60 -59 -17 -23
-37 -42 -46 -42 -12 0 -10 5 8 20 35 27 41 57 17 81 -16 16 -23 17 -40 9 -28
-16 -37 -46 -31 -112 5 -64 10 -70 67 -88 71 -21 126 -43 121 -47 -9 -9 -171
30 -189 45 -16 15 -24 35 -47 129 -9 34 -20 49 -58 74 -26 18 -55 41 -64 53
l-17 21 -67 -34 c-47 -23 -81 -33 -114 -33 -45 0 -102 21 -115 42 -4 6 12 1
34 -10 62 -33 89 -20 219 106 138 133 165 147 229 124z m68 -319 c0 -18 -7
-26 -27 -32 -24 -6 -28 -4 -28 15 0 12 6 28 12 34 19 19 43 10 43 -17z"/>
<path d="M1171 984 c-6 -15 -9 -34 -6 -43 3 -10 -2 -37 -10 -61 -8 -23 -15
-55 -15 -71 0 -16 -4 -29 -10 -29 -13 0 -13 -53 0 -66 18 -18 1 -40 -49 -61
-48 -20 -72 -46 -86 -90 l-6 -23 195 0 c215 0 212 -1 175 59 -13 22 -37 40
-70 54 l-50 21 7 53 c4 32 2 53 -3 53 -5 0 -10 15 -11 33 -1 18 -8 52 -17 76
-9 27 -12 48 -6 54 7 7 -13 67 -23 67 -2 0 -8 -12 -15 -26z m37 -233 c6 -82
13 -96 62 -121 88 -45 61 -61 -95 -58 -94 2 -120 6 -120 17 0 7 15 22 33 31
60 33 69 46 75 118 3 37 8 76 11 87 2 11 5 22 6 25 0 3 6 -3 12 -14 6 -10 13
-48 16 -85z"/>
<path d="M1060 929 c-14 -16 -26 -31 -28 -33 -2 -2 1 -14 7 -25 10 -18 7 -23
-28 -41 -53 -27 -59 -39 -13 -30 64 13 122 34 122 46 0 12 -42 34 -65 34 -8 0
-15 5 -15 10 0 6 7 10 15 10 9 0 32 7 52 15 30 13 33 17 23 30 -19 22 -42 17
-70 -16z"/>
<path d="M1283 868 c-13 -6 -23 -16 -23 -22 0 -12 85 -46 114 -46 23 0 10 19
-21 31 -19 7 -24 15 -20 29 6 23 -14 26 -50 8z"/>
<path d="M1050 418 l0 -61 -41 56 c-25 36 -47 57 -60 57 -17 0 -19 -7 -19 -75
0 -59 3 -75 15 -75 10 0 15 15 17 56 l3 56 40 -56 c22 -31 48 -56 58 -56 15 0
17 10 17 80 0 64 -3 80 -15 80 -12 0 -15 -14 -15 -62z"/>
<path d="M1293 470 c-37 -15 -54 -69 -37 -115 10 -25 62 -47 95 -40 39 9 79
65 46 65 -7 0 -18 -9 -25 -20 -14 -22 -61 -27 -80 -8 -15 15 -16 53 -2 79 13
23 57 25 81 3 27 -24 45 -13 22 14 -21 25 -68 36 -100 22z"/>
<path d="M1480 473 c-35 -13 -50 -37 -50 -78 0 -46 18 -69 62 -80 36 -9 96 26
98 58 0 15 -30 6 -40 -13 -12 -23 -59 -27 -78 -8 -7 7 -12 26 -12 43 0 17 5
36 12 43 17 17 67 15 74 -3 6 -15 34 -21 34 -7 -1 33 -60 60 -100 45z"/>
<path d="M1610 400 c0 -64 3 -80 15 -80 12 0 15 16 15 80 0 64 -3 80 -15 80
-12 0 -15 -16 -15 -80z"/>
<path d="M1123 395 c-24 -56 -28 -75 -18 -75 8 0 19 9 25 20 7 14 21 20 45 20
25 0 35 -5 40 -20 3 -11 13 -20 22 -20 8 0 13 3 11 8 -1 4 -14 38 -28 75 -20
53 -29 67 -45 67 -17 0 -28 -16 -52 -75z m66 -2 c1 -7 -8 -13 -19 -13 -23 0
-23 0 -9 37 10 26 12 27 19 8 5 -11 9 -26 9 -32z"/>
<path d="M923 288 c6 -19 728 -19 735 0 3 9 -75 12 -368 12 -293 0 -371 -3
-367 -12z"/>
<path d="M50 165 c0 -19 5 -35 10 -35 6 0 10 9 10 20 0 11 4 20 8 20 5 0 17
-9 27 -20 28 -31 45 -25 45 15 0 26 -4 35 -16 35 -11 0 -15 -6 -11 -20 3 -11
2 -20 -2 -20 -5 0 -16 9 -26 20 -28 31 -45 25 -45 -15z"/>
<path d="M172 165 l0 -35 50 0 c27 0 47 4 44 8 -3 5 -19 7 -36 4 -17 -2 -30 0
-30 6 0 6 15 13 33 15 l32 4 -32 1 c-45 3 -42 20 5 25 31 3 29 4 -14 5 l-52 2
0 -35z"/>
<path d="M290 165 c0 -24 5 -35 15 -35 8 0 15 7 15 15 0 10 10 15 28 15 16 0
32 3 35 7 14 14 -17 33 -54 33 -38 0 -39 -1 -39 -35z"/>
<path d="M406 168 c-24 -31 -18 -54 7 -29 14 14 50 14 65 -1 23 -23 24 1 1 31
-29 39 -41 39 -73 -1z"/>
<path d="M520 165 c0 -35 0 -35 45 -35 26 0 45 5 45 11 0 7 -12 10 -30 7 -27
-4 -30 -2 -30 24 0 18 -5 28 -15 28 -10 0 -15 -11 -15 -35z"/>
<path d="M676 168 c-24 -31 -18 -54 7 -29 14 14 54 14 62 1 3 -5 13 -10 21
-10 11 0 8 9 -12 35 -14 19 -32 35 -39 35 -8 0 -25 -15 -39 -32z"/>
<path d="M790 170 c0 -23 5 -31 25 -36 14 -3 36 -3 50 0 20 5 25 13 25 36 0
39 -27 41 -32 3 -2 -17 -9 -28 -18 -28 -9 0 -16 11 -18 28 -5 38 -32 36 -32
-3z"/>
<path d="M917 193 c-12 -11 14 -33 39 -33 13 0 24 -5 24 -11 0 -11 -16 -9 -52
6 -11 4 -18 3 -18 -4 0 -15 44 -25 76 -17 31 8 27 30 -7 34 -13 2 -28 8 -34
14 -7 7 2 8 28 4 27 -5 37 -4 32 3 -7 12 -78 15 -88 4z"/>
<path d="M1025 190 c3 -5 12 -7 20 -3 11 4 15 -3 15 -26 0 -21 5 -31 15 -31
10 0 15 10 15 31 0 24 4 30 15 25 8 -3 15 -1 15 4 0 6 -23 10 -51 10 -29 0
-48 -4 -44 -10z"/>
<path d="M1140 165 c0 -19 5 -35 10 -35 6 0 10 7 10 15 0 19 19 19 44 0 23
-17 72 -20 81 -5 8 13 52 13 60 0 3 -5 13 -10 21 -10 11 0 8 9 -12 35 -32 43
-47 44 -76 5 -24 -33 -26 -34 -48 -20 -13 8 -13 11 -1 19 24 15 1 31 -45 31
-44 0 -44 0 -44 -35z"/>
<path d="M1390 165 c0 -35 0 -35 45 -35 26 0 45 5 45 11 0 7 -12 10 -30 7 -27
-4 -30 -2 -30 24 0 18 -5 28 -15 28 -10 0 -15 -11 -15 -35z"/>
<path d="M1494 184 c3 -9 6 -24 6 -35 0 -10 5 -19 10 -19 6 0 10 16 10 35 0
25 -4 35 -16 35 -11 0 -14 -5 -10 -16z"/>
<path d="M1556 165 c-20 -26 -23 -35 -12 -35 8 0 18 5 21 10 3 6 17 10 30 10
13 0 27 -4 30 -10 3 -5 13 -10 21 -10 11 0 8 9 -12 35 -14 19 -32 35 -39 35
-7 0 -25 -16 -39 -35z"/>
<path d="M41 96 c-7 -8 -10 -20 -6 -26 9 -14 52 -13 58 3 4 8 8 9 14 1 4 -5
29 -10 56 -11 40 0 47 3 47 20 0 16 -3 17 -15 7 -12 -10 -15 -10 -16 1 0 8 -4
5 -9 -6 -7 -18 -8 -19 -15 -2 -4 9 -11 17 -16 17 -5 0 -9 -8 -10 -17 0 -15 -2
-15 -7 -3 -4 8 -14 16 -22 16 -8 1 -22 5 -31 8 -9 4 -21 0 -28 -8z"/>
<path d="M220 86 c0 -17 5 -26 16 -26 10 0 14 7 12 22 -5 32 -28 35 -28 4z"/>
<path d="M300 83 c0 -22 2 -25 10 -13 6 10 10 11 10 3 0 -7 4 -13 8 -13 16 0
5 45 -11 48 -13 3 -17 -4 -17 -25z"/>
<path d="M458 93 c-14 -18 -1 -33 28 -31 28 3 56 27 33 29 -8 0 -5 4 6 9 15 6
11 8 -18 7 -21 -1 -43 -7 -49 -14z"/>
<path d="M707 103 c-4 -3 -7 -14 -7 -24 0 -14 9 -17 45 -17 40 0 45 2 44 21 0
12 -3 16 -6 10 -7 -19 -23 -16 -23 5 0 13 -2 14 -9 3 -6 -9 -11 -10 -15 -2 -8
12 -19 14 -29 4z"/>
<path d="M800 88 c0 -21 5 -28 20 -28 15 0 20 6 19 28 0 23 -2 24 -8 7 -8 -19
-8 -19 -19 0 -11 18 -11 18 -12 -7z"/>
<path d="M850 85 c0 -17 5 -25 18 -25 14 0 15 2 2 10 -13 9 -13 10 0 10 12 0
13 2 1 9 -11 7 -11 9 0 14 10 4 9 6 -3 6 -13 1 -18 -7 -18 -24z"/>
<path d="M891 82 l1 -27 7 25 c7 23 8 23 13 5 3 -14 14 -21 34 -22 16 0 21 1
11 4 -21 5 -17 30 4 25 8 -2 10 0 6 4 -4 5 -24 9 -43 11 -31 2 -34 0 -33 -25z"/>
<path d="M980 85 c0 -17 5 -25 18 -25 14 0 15 2 2 10 -13 9 -13 10 0 10 12 0
13 2 1 9 -11 7 -11 9 0 14 10 4 9 6 -3 6 -13 1 -18 -7 -18 -24z"/>
<path d="M1143 92 c3 -12 1 -20 -4 -16 -5 3 -9 0 -9 -5 0 -6 9 -11 20 -11 24
0 25 10 4 36 -15 19 -15 18 -11 -4z"/>
<path d="M1350 87 c0 -22 4 -25 40 -25 35 -1 40 2 39 21 -1 17 -2 18 -6 5 -5
-22 -23 -24 -23 -3 0 8 -4 15 -9 15 -5 0 -16 3 -25 6 -12 5 -16 0 -16 -19z"/>
<path d="M1440 96 c0 -9 6 -16 13 -16 8 0 7 -4 -3 -10 -13 -8 -12 -10 2 -10
13 0 17 6 15 22 -4 25 -27 37 -27 14z"/>
<path d="M1488 82 l6 -27 7 25 c6 21 7 22 8 5 1 -14 8 -21 21 -21 15 0 20 6
18 20 -2 15 -12 21 -34 23 -29 2 -31 1 -26 -25z"/>
<path d="M1573 103 c-7 -2 -13 -13 -13 -24 0 -14 7 -19 28 -19 15 0 23 4 17 8
-12 9 -18 32 -7 32 4 0 15 -7 25 -14 14 -11 15 -15 5 -19 -8 -4 -7 -6 4 -6 13
-1 17 5 14 21 -2 17 -10 23 -32 24 -16 1 -35 0 -41 -3z"/>
<path d="M1290 80 c0 -11 5 -20 10 -20 6 0 10 5 10 11 0 8 5 8 15 -1 12 -10
15 -9 15 7 0 13 -8 19 -25 21 -19 1 -25 -3 -25 -18z"/>
</g>
</svg>
